<?xml version="1.0" standalone="no"?>
<!DOCTYPE svg PUBLIC "-//W3C//DTD SVG 20010904//EN"
 "http://www.w3.org/TR/2001/REC-SVG-20010904/DTD/svg10.dtd">
<svg version="1.0" xmlns="http://www.w3.org/2000/svg"
 width="256.000000pt" height="256.000000pt" viewBox="0 0 256.000000 256.000000"
 preserveAspectRatio="xMidYMid meet">

<g transform="translate(0.000000,256.000000) scale(0.100000,-0.100000)"
fill="#000000" stroke="none">
<path d="M221 2542 c-37 -20 -71 -73 -71 -110 0 -38 30 -91 61 -109 l29 -17 0
-106 0 -105 45 50 c41 47 44 54 45 107 0 47 4 59 21 68 55 30 75 119 39 177
-36 60 -106 79 -169 45z"/>
<path d="M2213 2540 c-61 -37 -81 -116 -43 -177 10 -17 28 -37 39 -43 17 -9
21 -21 21 -68 1 -53 4 -60 45 -107 l45 -50 0 105 0 106 29 17 c31 18 61 71 61
109 0 37 -34 90 -71 110 -44 23 -86 23 -126 -2z"/>
<path d="M1155 2509 c-428 -47 -785 -301 -985 -699 -45 -90 -105 -276 -126
-395 -24 -136 -24 -413 0 -545 39 -218 121 -390 249 -527 160 -169 367 -269
662 -320 140 -24 510 -24 650 0 354 61 602 205 759 441 131 198 195 505 167
811 -50 567 -368 1004 -855 1174 -154 54 -362 78 -521 60z m205 -579 c8 -14 8
-26 0 -40 -9 -17 -21 -20 -80 -20 -59 0 -71 3 -80 20 -8 14 -8 26 0 40 9 17
21 20 80 20 59 0 71 -3 80 -20z m80 -124 c6 -8 10 -25 8 -38 -3 -23 -3 -23
-168 -23 -165 0 -165 0 -168 23 -7 47 9 52 168 52 116 0 150 -3 160 -14z m517
-189 c198 -67 356 -225 419 -421 21 -65 27 -102 28 -186 1 -125 -12 -186 -66
-300 -54 -114 -176 -237 -288 -292 -137 -67 -141 -68 -770 -68 -629 0 -633 1
-770 68 -112 55 -234 178 -288 292 -54 114 -67 175 -66 300 1 84 7 121 28 186
72 224 254 386 491 439 47 11 183 13 630 12 l570 -2 82 -28z"/>
<path d="M666 1544 c-144 -35 -289 -148 -359 -281 -167 -317 -8 -696 338 -806
69 -22 79 -22 635 -22 556 0 566 0 635 22 346 110 505 489 338 806 -72 136
-214 246 -364 282 -91 21 -1134 21 -1223 -1z m103 -223 c110 -56 150 -179 95
-290 -46 -92 -151 -138 -249 -111 -182 51 -212 309 -46 397 57 30 145 31 200
4z m1243 -46 c15 -34 -1 -51 -87 -91 -120 -55 -119 -53 -15 -104 113 -55 136
-90 81 -119 -16 -9 -44 2 -158 58 -144 71 -167 88 -161 118 4 21 269 162 306
163 14 0 26 -9 34 -25z m-909 -515 c84 -66 198 -80 289 -36 29 15 65 34 80 44
22 13 32 14 45 6 75 -46 -65 -152 -214 -162 -85 -5 -150 13 -225 61 -51 34
-69 67 -48 92 17 21 43 19 73 -5z"/>
<path d="M624 1246 c-96 -42 -107 -173 -20 -228 47 -29 118 -20 158 20 62 62
42 175 -37 208 -42 17 -61 17 -101 0z"/>
</g>
</svg>
